<svg width="67" height="49" viewBox="0 0 67 49" fill="none" xmlns="http://www.w3.org/2000/svg">
<g clip-path="url(#clip0_20066_29154)">
<path d="M47.9123 14.1042V4.10132H15.6073V14.1042C15.6073 15.2023 14.7172 16.0924 13.6191 16.0924C12.5211 16.0924 11.631 15.2023 11.631 14.1042V0.125H51.8886V14.1042C51.8886 15.202 50.9981 16.0919 49.9004 16.0924C48.8024 16.0924 47.9123 15.2023 47.9123 14.1042Z" fill="#F7C234"/>
<path d="M24.9426 18.8779C24.9426 17.7102 24.0032 16.7811 22.8665 16.781H6.38391C5.24716 16.781 4.30774 17.7101 4.30774 18.8779C4.30775 20.0457 5.24717 20.9748 6.38391 20.9748H22.8665C24.0032 20.9747 24.9426 20.0456 24.9426 18.8779ZM28.919 18.8779C28.919 22.2223 26.2186 24.951 22.8665 24.9511H6.38391C3.03175 24.9511 0.331433 22.2223 0.331421 18.8779C0.331421 15.5335 3.03174 12.8047 6.38391 12.8047H22.8665C26.2186 12.8047 28.919 15.5335 28.919 18.8779Z" fill="#F7C234"/>
<path d="M24.9426 30.3867C24.9426 29.2189 24.0032 28.2898 22.8665 28.2898H6.38391C5.24716 28.2898 4.30774 29.2189 4.30774 30.3867C4.30775 31.5544 5.24717 32.4836 6.38391 32.4836H22.8665C24.0032 32.4835 24.9426 31.5544 24.9426 30.3867ZM28.919 30.3867C28.919 33.7311 26.2186 36.4598 22.8665 36.4599H6.38391C3.03175 36.4599 0.331433 33.7311 0.331421 30.3867C0.331421 27.0423 3.03174 24.3135 6.38391 24.3135H22.8665C26.2186 24.3135 28.919 27.0423 28.919 30.3867Z" fill="#F7C234"/>
<path d="M24.9426 41.4414C24.9426 40.2736 24.0032 39.3445 22.8665 39.3445H6.38391C5.24716 39.3445 4.30774 40.2736 4.30774 41.4414C4.30775 42.6091 5.24717 43.5383 6.38391 43.5383H22.8665C24.0032 43.5382 24.9426 42.6091 24.9426 41.4414ZM28.919 41.4414C28.919 44.7857 26.2186 47.5145 22.8665 47.5146H6.38391C3.03175 47.5146 0.331433 44.7858 0.331421 41.4414C0.331421 38.0969 3.03175 35.3682 6.38391 35.3682H22.8665C26.2186 35.3682 28.919 38.097 28.919 41.4414Z" fill="#F7C234"/>
<path d="M48.7769 12.2529C52.9142 12.2529 56.7612 12.642 59.6263 13.3014C61.0427 13.6274 62.3297 14.0443 63.3101 14.575C63.7989 14.8397 64.3067 15.1825 64.7132 15.6364C65.1303 16.1021 65.5233 16.7849 65.5235 17.6505C65.5235 18.516 65.1302 19.1987 64.7132 19.6645C64.3068 20.1183 63.7987 20.4613 63.3101 20.7259C62.3298 21.2566 61.0426 21.6736 59.6263 21.9996C56.7612 22.6589 52.9142 23.048 48.7769 23.048C44.6407 23.048 40.9038 22.6585 38.1449 21.9944C36.7816 21.6661 35.5432 21.246 34.5983 20.7026C33.7968 20.2415 32.504 19.2801 32.504 17.6505C32.5043 16.0216 33.7968 15.0621 34.5983 14.6009C35.5433 14.0575 36.7815 13.6348 38.1449 13.3066C40.9038 12.6424 44.6407 12.253 48.7769 12.2529ZM48.7769 16.2292C44.8513 16.2293 41.4448 16.6016 39.0769 17.1716C38.4337 17.3264 37.8997 17.4917 37.4692 17.6505C37.8998 17.8093 38.4335 17.9745 39.0769 18.1294C41.4448 18.6993 44.8511 19.0717 48.7769 19.0717C52.702 19.0717 56.2354 18.699 58.7332 18.1242C59.3955 17.9718 59.9546 17.8092 60.4133 17.6505C59.9547 17.4917 59.3954 17.3291 58.7332 17.1767C56.2354 16.602 52.7019 16.2292 48.7769 16.2292Z" fill="#F7C234"/>
<path d="M32.486 18.3364C32.4864 17.2387 33.3763 16.3483 34.4741 16.3483C35.5719 16.3483 36.4619 17.2387 36.4623 18.3364V41.6818C36.8059 41.8334 37.2269 42.0145 37.7204 42.2047C39.235 42.7884 41.4019 43.4845 43.9852 43.934C48.9008 44.7892 55.2269 44.7271 61.5007 41.3789V17.9481C61.5007 16.8503 62.391 15.9603 63.4888 15.96C64.5868 15.96 65.477 16.8501 65.477 17.9481V43.6855L64.4984 44.2627C56.8526 48.7734 49.0798 48.8588 43.3018 47.8533C40.4112 47.3503 37.9927 46.57 36.2914 45.9144C35.4397 45.5861 34.7629 45.2883 34.2929 45.0678C34.0578 44.9576 33.8729 44.8665 33.7441 44.8012C33.6798 44.7686 33.6304 44.7401 33.5939 44.721C33.5757 44.7114 33.561 44.7036 33.5499 44.6977C33.5444 44.6947 33.5381 44.6945 33.5344 44.6925L33.5292 44.6899V44.6873C33.5327 44.6792 33.5925 44.5666 34.4741 42.9399L33.5266 44.6873L32.486 44.1229V18.3364Z" fill="#F7C234"/>
<path d="M62.7158 25.4682C63.7514 25.1036 64.8854 25.6467 65.2502 26.6823C65.6148 27.7178 65.0715 28.8518 64.036 29.2167C55.1777 32.3364 47.902 32.3566 42.7928 31.5595C40.2441 31.1618 38.243 30.5625 36.862 30.0528C36.1719 29.7981 35.6354 29.5645 35.2621 29.3901C35.0754 29.3029 34.9289 29.2289 34.8246 29.1752C34.7725 29.1484 34.729 29.1273 34.6978 29.1105C34.6826 29.1024 34.669 29.0954 34.6589 29.0898C34.6541 29.0872 34.6496 29.0841 34.646 29.082L34.6408 29.0795L34.6382 29.0769C33.6806 28.5403 33.3385 27.3294 33.8745 26.3716C34.4111 25.414 35.622 25.0719 36.5798 25.6079L36.5772 25.6054H36.5746V25.6028C36.5754 25.6032 36.5781 25.6056 36.5824 25.6079C36.5929 25.6136 36.6121 25.6263 36.6419 25.6416C36.7029 25.673 36.8052 25.7213 36.9448 25.7866C37.2241 25.9171 37.6587 26.1082 38.2392 26.3224C39.4 26.7508 41.1438 27.277 43.4037 27.6298C47.9151 28.3337 54.5243 28.3531 62.7158 25.4682Z" fill="#F7C234"/>
<path d="M62.5521 33.4156C63.582 33.0355 64.7242 33.5612 65.1046 34.5909C65.4847 35.6208 64.959 36.763 63.9293 37.1434C54.8071 40.5102 47.3098 40.5311 42.0441 39.67C39.4184 39.2406 37.3587 38.5941 35.9372 38.0443C35.2265 37.7694 34.6747 37.5178 34.2908 37.3298C34.099 37.2359 33.9474 37.1597 33.8403 37.102C33.7871 37.0733 33.7454 37.0475 33.7135 37.0295C33.6976 37.0206 33.6825 37.0148 33.672 37.0088C33.6668 37.0058 33.663 37.0007 33.6591 36.9984L33.6539 36.9959H33.6513L33.6488 36.9933C32.7023 36.4371 32.3861 35.2192 32.942 34.2725C33.4975 33.3272 34.7114 33.0126 35.6576 33.5658H35.6628C35.6736 33.5719 35.6962 33.5825 35.7275 33.5994C35.7906 33.6334 35.8943 33.6895 36.0382 33.7599C36.3261 33.9009 36.7738 34.1061 37.3714 34.3372C38.5665 34.7994 40.3612 35.3653 42.6861 35.7455C47.3244 36.504 54.1217 36.5269 62.5521 33.4156ZM35.6602 33.5632L35.6576 33.5658V33.5606L35.6602 33.5632Z" fill="#F7C234"/>
</g>
<defs>
<clipPath id="clip0_20066_29154">
<rect width="66.2719" height="47.7158" fill="white" transform="translate(0.0877686 0.396484)"/>
</clipPath>
</defs>
</svg>
