<svg width="65" height="64" viewBox="0 0 65 64" fill="none" xmlns="http://www.w3.org/2000/svg">
<path d="M59.6045 54.8587L47.146 42.3349C50.3406 38.4022 52.0706 33.4918 52.043 28.4355C52.0715 23.9234 50.7527 19.5045 48.2538 15.739C45.7548 11.9734 42.1883 9.03092 38.0064 7.2845C33.8245 5.53808 29.2155 5.06639 24.7638 5.92924C20.3121 6.7921 16.2181 8.95065 13.001 12.1312C9.78388 15.3117 7.58848 19.371 6.69313 23.7945C5.79777 28.2179 6.24278 32.8062 7.97175 36.9777C9.70072 41.1492 12.6358 44.716 16.4048 47.2259C20.1739 49.7357 24.6071 51.0756 29.1425 51.0757C34.2054 51.1322 39.1353 49.4635 43.1132 46.3471L55.5717 58.8708L59.6045 54.8587ZM17.0441 40.4721C14.6556 38.0876 13.0299 35.0529 12.3721 31.7507C11.7142 28.4485 12.0535 25.0264 13.3473 21.9157C14.6411 18.805 16.8315 16.145 19.6423 14.2708C22.4532 12.3966 25.7588 11.392 29.1425 11.3838C33.6765 11.4212 38.0141 13.2298 41.2203 16.4195C44.4264 19.6093 46.2442 23.9247 46.2819 28.4355C46.2736 31.802 45.2639 35.0907 43.38 37.8872C41.4962 40.6837 38.8225 42.8628 35.6958 44.15C32.5692 45.4372 29.1295 45.7748 25.8103 45.1203C22.4911 44.4658 19.4409 42.8485 17.0441 40.4721Z" fill="#F7C234"/>
</svg>
