<svg width="16" height="16" viewBox="0 0 16 16" fill="none" xmlns="http://www.w3.org/2000/svg">
<path fill-rule="evenodd" clip-rule="evenodd" d="M12.5775 4.5775C12.6446 4.50803 12.7248 4.45263 12.8136 4.41451C12.9023 4.3764 12.9977 4.35634 13.0943 4.3555C13.1909 4.35466 13.2866 4.37306 13.376 4.40963C13.4654 4.44619 13.5466 4.5002 13.6149 4.56848C13.6832 4.63677 13.7372 4.71797 13.7737 4.80735C13.8103 4.89673 13.8287 4.99249 13.8279 5.08906C13.827 5.18563 13.807 5.28106 13.7688 5.36979C13.7307 5.45852 13.6753 5.53877 13.6059 5.60586L7.0604 12.1513C6.92402 12.2877 6.73907 12.3643 6.54622 12.3643C6.35338 12.3643 6.16842 12.2877 6.03204 12.1513L2.39495 8.51422C2.26247 8.37706 2.18917 8.19335 2.19082 8.00266C2.19248 7.81197 2.26897 7.62956 2.40381 7.49472C2.53865 7.35988 2.72106 7.28339 2.91175 7.28173C3.10244 7.28008 3.28615 7.35338 3.42331 7.48586L6.54622 10.6088L12.5775 4.5775Z" fill="white"/>
</svg>
