<svg width="65" height="65" viewBox="0 0 65 65" fill="none" xmlns="http://www.w3.org/2000/svg">
<path d="M56.3124 9.8008C55.3734 8.72721 54.2438 7.83278 53.0075 7.18419C51.7712 6.53559 50.4602 6.14953 49.1723 6.05479C47.9221 5.92124 46.715 6.06187 45.635 6.46691C44.5549 6.87194 43.6282 7.53165 42.9191 8.39993L8.75266 42.2855C8.60805 42.3868 8.49663 42.5261 8.42725 42.6923C8.35788 42.8586 8.33258 43.0473 8.3531 43.2435L6.24243 56.5188C6.24597 56.9227 6.34044 57.3396 6.51934 57.7398C6.69824 58.14 6.95711 58.5135 7.27722 58.8336C7.59732 59.1537 7.97076 59.4124 8.37095 59.5913C8.77114 59.7702 9.18811 59.8648 9.59198 59.8684L22.8682 57.7581C23.0643 57.7786 23.2531 57.7531 23.4194 57.6838C23.5856 57.6144 23.7249 57.503 23.8262 57.3584L57.7397 23.4464C58.596 22.6775 59.2439 21.703 59.6428 20.5837C60.0418 19.4644 60.1835 18.2243 60.0587 16.9408C59.964 15.6529 59.5779 14.342 58.9293 13.1057C58.2807 11.8695 57.3861 10.7398 56.3124 9.8008ZM22.0636 47.6767L47.6314 22.3891L49.5592 24.0902L23.139 50.7882L22.0636 47.6767ZM18.4349 44.048L15.3494 43.2255L42.0222 16.5538L43.9764 18.5077L18.4349 44.048ZM12.74 46.9514L17.6472 48.4644L19.16 53.3712L11.7638 54.3472L12.74 46.9514ZM44.9639 13.6124L46.5477 12.0285C47.3903 11.2736 48.5582 10.9283 49.8209 11.0604C51.0837 11.1925 52.3501 11.7924 53.371 12.7422C54.3208 13.763 54.9207 15.0295 55.0528 16.2923C55.1849 17.555 54.8396 18.7225 54.0847 19.565L52.5006 21.1488L44.9639 13.6124Z" fill="#F7C234"/>
</svg>
