<svg width="196" height="197" viewBox="0 0 196 197" fill="none" xmlns="http://www.w3.org/2000/svg">
<g opacity="0.2">
<path fill-rule="evenodd" clip-rule="evenodd" d="M86.5827 86.5823C89.6505 83.5145 93.8113 81.791 98.1498 81.791C102.488 81.791 106.649 83.5145 109.717 86.5823C112.785 89.65 114.508 93.8108 114.508 98.1493C114.508 102.488 112.785 106.649 109.717 109.716C106.649 112.784 102.488 114.508 98.1498 114.508C93.8113 114.508 89.6505 112.784 86.5827 109.716C83.5149 106.649 81.7915 102.488 81.7915 98.1493C81.7915 93.8108 83.5149 89.65 86.5827 86.5823Z" fill="#233B5C"/>
<path fill-rule="evenodd" clip-rule="evenodd" d="M63.4486 63.4489C72.6519 54.2456 85.1343 49.0752 98.1498 49.0752C111.165 49.0752 123.648 54.2456 132.851 63.4489C142.054 72.6522 147.225 85.1346 147.225 98.1501C147.225 111.166 142.054 123.648 132.851 132.851C123.648 142.055 111.165 147.225 98.1498 147.225C85.1343 147.225 72.6519 142.055 63.4486 132.851C54.2453 123.648 49.0749 111.166 49.0749 98.1501C49.0749 85.1346 54.2453 72.6522 63.4486 63.4489ZM98.1498 65.4335C89.4728 65.4335 81.1512 68.8804 75.0157 75.016C68.8801 81.1515 65.4332 89.4731 65.4332 98.1501C65.4332 106.827 68.8801 115.149 75.0157 121.284C81.1512 127.42 89.4728 130.867 98.1498 130.867C106.827 130.867 115.148 127.42 121.284 121.284C127.419 115.149 130.866 106.827 130.866 98.1501C130.866 89.4731 127.419 81.1515 121.284 75.016C115.148 68.8804 106.827 65.4335 98.1498 65.4335Z" fill="#3B5881"/>
<path fill-rule="evenodd" clip-rule="evenodd" d="M66.8495 22.5844C76.7729 18.474 87.4088 16.3584 98.1498 16.3584C108.891 16.3584 119.527 18.474 129.45 22.5844C139.373 26.6948 148.39 32.7195 155.985 40.3146C163.58 47.9096 169.605 56.9262 173.715 66.8496C177.826 76.773 179.941 87.4089 179.941 98.1499C179.941 108.891 177.826 119.527 173.715 129.45C169.605 139.374 163.58 148.39 155.985 155.985C148.39 163.58 139.373 169.605 129.45 173.715C119.527 177.826 108.891 179.941 98.1498 179.941C87.4088 179.941 76.7729 177.826 66.8495 173.715C56.9261 169.605 47.9095 163.58 40.3145 155.985C32.7194 148.39 26.6947 139.374 22.5843 129.45C18.4739 119.527 16.3583 108.891 16.3583 98.1499C16.3583 87.4089 18.4739 76.773 22.5843 66.8496C26.6947 56.9262 32.7194 47.9096 40.3145 40.3146C47.9095 32.7195 56.9261 26.6948 66.8495 22.5844ZM98.1498 32.7167C89.557 32.7167 81.0483 34.4092 73.1096 37.6975C65.1709 40.9858 57.9575 45.8056 51.8815 51.8816C45.8055 57.9577 40.9857 65.171 37.6974 73.1097C34.4091 81.0484 32.7166 89.5571 32.7166 98.1499C32.7166 106.743 34.4091 115.251 37.6974 123.19C40.9857 131.129 45.8055 138.342 51.8815 144.418C57.9576 150.494 65.1709 155.314 73.1096 158.602C81.0483 161.891 89.557 163.583 98.1498 163.583C106.743 163.583 115.251 161.891 123.19 158.602C131.129 155.314 138.342 150.494 144.418 144.418C150.494 138.342 155.314 131.129 158.602 123.19C161.89 115.251 163.583 106.743 163.583 98.1499C163.583 89.5571 161.89 81.0484 158.602 73.1097C155.314 65.171 150.494 57.9577 144.418 51.8816C138.342 45.8056 131.129 40.9858 123.19 37.6975C115.251 34.4092 106.743 32.7167 98.1498 32.7167Z" fill="#8B9BB1"/>
</g>
</svg>
