<svg width="197" height="197" viewBox="0 0 197 197" fill="none" xmlns="http://www.w3.org/2000/svg">
<g opacity="0.2">
<path d="M118.101 28.1334C120.247 25.9856 123.113 24.7097 126.145 24.5526C129.178 24.3955 132.16 25.3682 134.517 27.2828L135.449 28.1253L166.767 59.4515C174.734 67.418 169.548 80.8564 158.662 81.7397L157.517 81.7888H28.621C25.4703 81.7872 22.4409 80.5735 20.1606 78.3993C17.8803 76.225 16.5239 73.2567 16.3725 70.1096C16.2211 66.9625 17.2863 63.8778 19.3473 61.4946C21.4083 59.1114 24.3072 57.6126 27.4432 57.3085L28.621 57.2513H129.871L118.093 45.4733C115.795 43.1729 114.505 40.0546 114.505 36.8034C114.505 33.5521 115.804 30.4338 118.101 28.1334Z" fill="#8B9BB1"/>
<path d="M167.948 117.895C165.668 115.721 162.638 114.507 159.488 114.506H30.5922L29.4471 114.555C18.5607 115.438 13.3751 128.877 21.3416 136.843L52.6596 168.169L53.592 169.012C56.0306 171.005 59.1422 171.984 62.2827 171.746C65.4231 171.508 68.3518 170.072 70.4624 167.734C72.573 165.397 73.7038 162.337 73.6206 159.188C73.5375 156.04 72.2468 153.044 70.0158 150.821L58.2378 139.043H159.488L160.665 138.986C163.802 138.682 166.7 137.183 168.761 134.8C170.822 132.417 171.888 129.332 171.736 126.185C171.585 123.038 170.228 120.07 167.948 117.895Z" fill="#233B5C"/>
</g>
</svg>
