<svg width="197" height="197" viewBox="0 0 197 197" fill="none" xmlns="http://www.w3.org/2000/svg">
<g opacity="0.2">
<ellipse cx="40.8959" cy="155.404" rx="16.3583" ry="16.3583" fill="#D1D5DC"/>
<path d="M147.225 89.9737H121.215C117.78 80.4858 108.783 73.6154 98.1499 73.6154C87.517 73.6154 78.5199 80.4858 75.0847 89.9737H49.0749C46.3758 89.9737 32.7166 89.1558 32.7166 73.6154V65.4362C32.7166 50.4683 45.3125 49.0779 49.0749 49.0779H132.339V68.4628L175.852 40.8986L132.339 13.7832C132.339 13.7832 132.339 18.6349 132.339 32.7195H49.0749C35.9065 32.7195 16.3583 41.3895 16.3583 65.4362V73.6154C16.3583 97.6621 35.9065 106.332 49.0749 106.332H75.0847C78.5199 115.82 87.517 122.69 98.1499 122.69C108.783 122.69 117.78 115.82 121.215 106.332H147.225C149.924 106.332 163.583 107.15 163.583 122.69V130.87C163.583 145.837 150.987 147.228 147.225 147.228H63.961C60.5258 137.74 51.5287 130.87 40.8958 130.87C34.388 130.87 28.1468 133.455 23.5451 138.056C18.9435 142.658 16.3583 148.899 16.3583 155.407C16.3583 161.915 18.9435 168.156 23.5451 172.758C28.1468 177.359 34.388 179.945 40.8958 179.945C51.5287 179.945 60.5258 173.074 63.961 163.586H147.225C160.393 163.586 179.942 154.834 179.942 130.87V122.69C179.942 98.7254 160.393 89.9737 147.225 89.9737ZM40.8958 163.586C38.7265 163.586 36.6461 162.725 35.1122 161.191C33.5783 159.657 32.7166 157.576 32.7166 155.407C32.7166 153.238 33.5783 151.157 35.1122 149.624C36.6461 148.09 38.7265 147.228 40.8958 147.228C43.065 147.228 45.1454 148.09 46.6793 149.624C48.2132 151.157 49.0749 153.238 49.0749 155.407C49.0749 157.576 48.2132 159.657 46.6793 161.191C45.1454 162.725 43.065 163.586 40.8958 163.586Z" fill="#3B5881"/>
</g>
</svg>
