<svg width="197" height="197" viewBox="0 0 197 197" fill="none" xmlns="http://www.w3.org/2000/svg">
<g opacity="0.2">
<path d="M145.998 163.177L109.805 126.984L126.982 109.808L163.174 146.001C165.492 148.318 166.65 151.181 166.65 154.589C166.65 157.997 165.492 160.86 163.174 163.177C160.857 165.495 157.994 166.653 154.586 166.653C151.178 166.653 148.316 165.495 145.998 163.177ZM33.1256 163.177C30.8082 160.86 29.6494 157.997 29.6494 154.589C29.6494 151.181 30.8082 148.318 33.1256 146.001L80.9737 98.1529L67.0691 84.2483C65.5696 85.7479 63.6611 86.4976 61.3437 86.4976C59.0263 86.4976 57.1178 85.7479 55.6183 84.2483L50.9153 79.5453V97.9485C50.9153 99.8569 50.0974 101.152 48.4615 101.834C46.8257 102.515 45.3262 102.174 43.963 100.811L21.6747 78.5229C20.3116 77.1597 19.9708 75.6602 20.6524 74.0244C21.3339 72.3886 22.629 71.5706 24.5375 71.5706H42.9406L38.442 67.0721C36.8062 65.4363 35.9883 63.5278 35.9883 61.3467C35.9883 59.1656 36.8062 57.2571 38.442 55.6213L61.7527 32.3106C64.4791 29.5842 67.4099 27.6076 70.5453 26.3807C73.6806 25.1539 76.8841 24.5404 80.1558 24.5404C82.8822 24.5404 85.4395 24.9494 87.8278 25.7673C90.2162 26.5852 92.5663 27.8121 94.8783 29.4479C95.9688 30.1295 96.5496 31.0838 96.6204 32.3106C96.6913 33.5375 96.2469 34.6281 95.2872 35.5823L79.7468 51.1227L84.2454 55.6213C85.7449 57.1208 86.4946 59.0292 86.4946 61.3467C86.4946 63.6641 85.7449 65.5726 84.2454 67.0721L98.15 80.9767L116.553 62.5736C116.008 61.074 115.566 59.5064 115.228 57.8705C114.89 56.2347 114.718 54.5989 114.713 52.963C114.713 44.9202 117.475 38.1369 122.998 32.6133C128.522 27.0896 135.302 24.3305 143.34 24.3359C144.43 24.3359 145.453 24.3714 146.407 24.4423C147.361 24.5132 148.316 24.6822 149.27 24.9494C150.497 25.3583 151.282 26.2117 151.625 27.5095C151.969 28.8072 151.661 29.9305 150.701 30.8793L137.41 44.1704C136.592 44.9883 136.183 45.9426 136.183 47.0331C136.183 48.1237 136.592 49.0779 137.41 49.8958L146.407 58.8929C147.225 59.7108 148.179 60.1198 149.27 60.1198C150.36 60.1198 151.315 59.7108 152.132 58.8929L165.424 45.6018C166.378 44.6475 167.504 44.3067 168.802 44.5794C170.099 44.852 170.95 45.6699 171.354 47.0331C171.626 47.9874 171.798 48.9416 171.869 49.8958C171.94 50.8501 171.972 51.8725 171.967 52.963C171.967 61.0059 169.208 67.7864 163.69 73.3046C158.171 78.8228 151.388 81.5847 143.34 81.5901C141.704 81.5901 140.068 81.4538 138.432 81.1812C136.797 80.9085 135.229 80.4314 133.729 79.7498L50.3018 163.177C47.9844 165.495 45.1217 166.653 41.7137 166.653C38.3057 166.653 35.443 165.495 33.1256 163.177Z" fill="#3B5881"/>
</g>
</svg>
