<svg width="196" height="197" viewBox="0 0 196 197" fill="none" xmlns="http://www.w3.org/2000/svg">
<g opacity="0.2">
<path d="M116.719 23.0441C116.386 21.7176 115.62 20.5401 114.542 19.6988C113.464 18.8574 112.136 18.4004 110.768 18.4004H83.5317C82.1642 18.4004 80.8359 18.8574 79.7578 19.6988C78.6797 20.5401 77.9137 21.7176 77.5814 23.0441L73.5327 39.2634C73.3328 40.0612 72.9746 40.8106 72.4793 41.4671C71.984 42.1237 71.3617 42.6739 70.6495 43.0851L62.73 47.6675C62.0164 48.0794 61.2271 48.3432 60.4092 48.4433C59.5913 48.5435 58.7617 48.4778 57.9697 48.2503L41.8977 43.6495C40.5812 43.2721 39.1763 43.3461 37.9067 43.8597C36.6372 44.3733 35.576 45.297 34.8922 46.4836L21.28 70.0641C20.5959 71.249 20.3276 72.6286 20.5176 73.9835C20.7077 75.3385 21.3453 76.591 22.329 77.5419L34.3524 89.1665C34.9442 89.7386 35.4149 90.4239 35.7363 91.1816C36.0577 91.9394 36.2234 92.7541 36.2234 93.5772V102.717C36.2242 103.542 36.0589 104.357 35.7375 105.116C35.416 105.875 34.945 106.561 34.3524 107.134L22.329 118.753C21.3448 119.705 20.7075 120.959 20.5185 122.315C20.3295 123.671 20.5998 125.052 21.2862 126.237L34.8922 149.811C35.5766 150.995 36.6372 151.917 37.9054 152.429C39.1735 152.941 40.5766 153.015 41.8915 152.639L57.9023 148.063C58.7142 147.83 59.5654 147.768 60.4024 147.88C61.2395 147.992 62.0444 148.276 62.7668 148.713L68.6742 152.295C69.9188 153.051 70.8538 154.226 71.312 155.608L77.3482 173.704C77.7563 174.925 78.5381 175.987 79.5829 176.739C80.6277 177.491 81.8825 177.895 83.1698 177.894H111.13C112.418 177.894 113.674 177.489 114.719 176.736C115.763 175.983 116.545 174.92 116.952 173.698L122.976 155.62C123.439 154.229 124.386 153.049 125.644 152.295L131.668 148.695C132.39 148.263 133.192 147.984 134.026 147.875C134.859 147.766 135.706 147.83 136.514 148.063L152.402 152.633C153.718 153.011 155.123 152.938 156.392 152.425C157.662 151.913 158.723 150.99 159.408 149.805L173.038 126.2C173.719 125.021 173.988 123.65 173.803 122.302C173.619 120.954 172.992 119.705 172.02 118.753L160.162 107.122C159.58 106.552 159.118 105.871 158.802 105.12C158.486 104.369 158.323 103.563 158.322 102.748V93.5465C158.323 92.7318 158.486 91.9254 158.802 91.1744C159.118 90.4235 159.58 89.743 160.162 89.1727L172.02 77.5419C172.992 76.5893 173.619 75.3407 173.803 73.9926C173.988 72.6444 173.719 71.2732 173.038 70.0948L159.408 46.4897C158.722 45.3053 157.66 44.3842 156.391 43.8729C155.121 43.3616 153.717 43.2894 152.402 43.6679L136.453 48.2503C135.664 48.4779 134.837 48.5447 134.021 48.4467C133.205 48.3487 132.418 48.0879 131.705 47.6798L123.669 43.079C122.951 42.6689 122.323 42.1178 121.823 41.459C121.324 40.8001 120.962 40.047 120.761 39.245L116.719 23.0441Z" stroke="#3B5881" stroke-width="11.7813" stroke-linejoin="round"/>
<rect x="70.4052" y="71.4085" width="10.5489" height="53.4896" stroke="#8B9BB1" stroke-width="7.85419"/>
<rect x="94.9427" y="89.8089" width="10.5489" height="35.0864" stroke="#8B9BB1" stroke-width="7.85419"/>
<rect x="119.48" y="108.21" width="10.5489" height="16.6833" stroke="#8B9BB1" stroke-width="7.85419"/>
</g>
</svg>
