<svg width="57" height="57" viewBox="0 0 57 57" fill="none" xmlns="http://www.w3.org/2000/svg">
<g clip-path="url(#clip0_20066_29142)">
<path d="M35.7532 7.59629C34.1198 7.59629 32.5532 8.26356 31.3982 9.4513C30.2432 10.639 29.5943 12.25 29.5943 13.9297C29.5943 15.6094 30.2432 17.2204 31.3982 18.4081C32.5532 19.5959 34.1198 20.2631 35.7532 20.2631C37.3867 20.2631 38.9532 19.5959 40.1082 18.4081C41.2632 17.2204 41.9121 15.6094 41.9121 13.9297C41.9121 12.25 41.2632 10.639 40.1082 9.4513C38.9532 8.26356 37.3867 7.59629 35.7532 7.59629ZM24.6672 13.9297C24.6668 11.9893 25.1481 10.0809 26.0655 8.38518C26.9828 6.6895 28.3059 5.26267 29.9094 4.23981C31.513 3.21696 33.3438 2.63192 35.2287 2.54011C37.1135 2.4483 38.99 2.85275 40.6804 3.71517C42.3705 2.85378 44.2465 2.45015 46.1308 2.54247C48.015 2.63479 49.8452 3.22001 51.4481 4.24275C53.051 5.26548 54.3736 6.69191 55.2907 8.38702C56.2079 10.0821 56.6892 11.9899 56.6892 13.9297C56.6892 15.8695 56.2079 17.7773 55.2907 19.4724C54.3736 21.1675 53.051 22.5939 51.4481 23.6167C49.8452 24.6394 48.015 25.2246 46.1308 25.3169C44.2465 25.4093 42.3705 25.0056 40.6804 24.1442C38.99 25.0067 37.1135 25.4111 35.2287 25.3193C33.3438 25.2275 31.513 24.6425 29.9094 23.6196C28.3059 22.5967 26.9828 21.1699 26.0655 19.4742C25.1481 17.7785 24.6668 15.8701 24.6672 13.9297ZM44.9916 20.2327C45.1936 20.253 45.3989 20.2631 45.6075 20.2631C46.4411 20.2613 47.2657 20.0854 48.0313 19.7462C48.7969 19.407 49.4876 18.9114 50.0614 18.2896C50.6353 17.6678 51.0805 16.9327 51.3699 16.1288C51.6594 15.3249 51.7871 14.4689 51.7454 13.6127C51.7036 12.7565 51.4933 11.9179 51.1271 11.1478C50.761 10.3777 50.2466 9.692 49.6151 9.13232C48.9837 8.57265 48.2483 8.15062 47.4535 7.89182C46.6588 7.63301 45.8212 7.54281 44.9916 7.62669C46.1968 9.49513 46.8395 11.6876 46.8393 13.9297C46.8395 16.1718 46.1968 18.3643 44.9916 20.2327ZM20.8117 33.5633C20.4072 33.5622 20.0064 33.6431 19.6323 33.8013C19.2583 33.9596 18.9181 34.192 18.6314 34.4854L13.5811 39.6788V49.3968H27.4436L41.7397 45.7235L50.441 41.9031C50.7374 41.7384 50.9642 41.467 51.0779 41.1409C51.1917 40.8148 51.1843 40.457 51.0573 40.1361C50.9303 39.8153 50.6926 39.5539 50.3897 39.4022C50.0868 39.2505 49.7401 39.2191 49.4162 39.314L49.3669 39.3267L33.5705 43.0634H24.6672V37.9967H32.3658C32.9375 37.9967 33.4858 37.7631 33.8901 37.3474C34.2943 36.9317 34.5214 36.3679 34.5214 35.78C34.5214 35.1921 34.2943 34.6283 33.8901 34.2126C33.4858 33.7968 32.9375 33.5633 32.3658 33.5633H20.8117ZM39.4165 36.4817L48.1671 34.412C49.0991 34.16 50.0749 34.1309 51.0195 34.3271C51.9641 34.5233 52.8524 34.9395 53.6162 35.5437C54.38 36.1479 54.9991 36.9241 55.4258 37.8126C55.8524 38.7012 56.0754 39.6784 56.0776 40.6694C56.0767 41.8723 55.7503 43.0513 55.1352 44.0745C54.52 45.0976 53.6402 45.9247 52.5942 46.4632L52.5276 46.4987L43.3139 50.5394L28.0496 54.4636H0.0314941V36.0967H10.0976L15.1529 30.8982C15.8977 30.1349 16.7815 29.5299 17.7537 29.1178C18.7259 28.7057 19.7675 28.4946 20.8191 28.4966H32.3658C33.3536 28.4964 34.3304 28.7088 35.2336 29.1199C36.1368 29.531 36.9464 30.1319 37.6104 30.8839C38.2744 31.6359 38.7781 32.5223 39.0891 33.4864C39.4002 34.4504 39.5117 35.4707 39.4165 36.4817ZM8.65398 41.1634H4.95863V49.3968H8.65398V41.1634Z" fill="#F7C234"/>
</g>
<defs>
<clipPath id="clip0_20066_29142">
<rect width="56.6577" height="56.6577" fill="white" transform="translate(0.0314941 0.166992)"/>
</clipPath>
</defs>
</svg>
