<svg width="64" height="64" viewBox="0 0 64 64" fill="none" xmlns="http://www.w3.org/2000/svg">
<path d="M8.11621 10.0243C8.11621 9.497 8.32568 8.9913 8.69853 8.61845C9.07138 8.2456 9.57708 8.03613 10.1044 8.03613C10.6317 8.03613 11.1374 8.2456 11.5102 8.61845C11.8831 8.9913 12.0925 9.497 12.0925 10.0243V51.7756H53.8439C54.3711 51.7756 54.8768 51.9851 55.2497 52.3579C55.6225 52.7308 55.832 53.2365 55.832 53.7638C55.832 54.2911 55.6225 54.7968 55.2497 55.1696C54.8768 55.5425 54.3711 55.7519 53.8439 55.7519H10.1044C9.57708 55.7519 9.07138 55.5425 8.69853 55.1696C8.32568 54.7968 8.11621 54.2911 8.11621 53.7638V10.0243ZM51.8557 17.9769C51.8557 17.6077 51.7529 17.2458 51.5588 16.9317C51.3647 16.6176 51.0869 16.3638 50.7567 16.1987C50.4264 16.0335 50.0567 15.9636 49.689 15.9968C49.3213 16.03 48.97 16.1649 48.6746 16.3864L33.8297 27.5201L23.7034 21.5662C23.418 21.3982 23.0951 21.3041 22.7641 21.2925C22.4331 21.2809 22.1044 21.3522 21.808 21.4999L14.7434 25.0309V49.1247H51.8557V17.9769Z" fill="#F7C234"/>
</svg>
