<svg width="65" height="64" viewBox="0 0 65 64" fill="none" xmlns="http://www.w3.org/2000/svg">
<path fill-rule="evenodd" clip-rule="evenodd" d="M35.4239 8.1237C34.9285 8.07856 34.1943 8.07075 32.7873 8.07075H24.2179C21.9325 8.07075 20.3789 8.07282 19.178 8.17094C18.0082 8.26651 17.41 8.43974 16.9927 8.65236C15.9887 9.16396 15.1723 9.98029 14.6607 10.9844C14.4481 11.4017 14.2749 11.9999 14.1793 13.1696C14.0812 14.3705 14.0791 15.9241 14.0791 18.2095V45.9578C14.0791 48.2432 14.0812 49.7969 14.1793 50.9977C14.2749 52.1675 14.4481 52.7657 14.6607 53.183C15.1723 54.187 15.9887 55.0034 16.9927 55.515C17.41 55.7276 18.0082 55.9008 19.178 55.9964C20.3789 56.0945 21.9325 56.0966 24.2179 56.0966H41.2938C43.5792 56.0966 45.1328 56.0945 46.3337 55.9964C47.5034 55.9008 48.1016 55.7276 48.5189 55.515C49.523 55.0034 50.3393 54.187 50.8509 53.183C51.0636 52.7657 51.2368 52.1675 51.3324 50.9977C51.4305 49.7969 51.4326 48.2432 51.4326 45.9578V26.716C51.4326 25.3092 51.4247 24.575 51.3796 24.0795L42.2759 24.0796C41.6025 24.0796 40.9467 24.0797 40.3913 24.0343C39.7814 23.9845 39.0617 23.8669 38.3376 23.4979C37.3335 22.9863 36.5172 22.17 36.0056 21.1659C35.6366 20.4417 35.519 19.7221 35.4692 19.1122C35.4238 18.5568 35.4239 17.9009 35.4239 17.2276L35.4239 8.1237ZM39.1422 3.66829C38.5395 3.39812 37.9121 3.18407 37.268 3.02942C36.0335 2.73304 34.7533 2.73365 33.0591 2.73446C32.9696 2.7345 32.8791 2.73454 32.7873 2.73454L24.1077 2.73454C21.96 2.73451 20.1874 2.73448 18.7434 2.85246C17.2437 2.97499 15.8651 3.23797 14.5702 3.89777C12.562 4.92097 10.9293 6.55364 9.90615 8.56178C9.24635 9.8567 8.98337 11.2353 8.86084 12.7351C8.74286 14.179 8.74289 15.9516 8.74292 18.0993V46.068C8.74289 48.2157 8.74286 49.9883 8.86084 51.4323C8.98337 52.932 9.24635 54.3106 9.90615 55.6056C10.9293 57.6137 12.562 59.2464 14.5702 60.2696C15.8651 60.9294 17.2437 61.1923 18.7434 61.3149C20.1874 61.4328 21.9599 61.4328 24.1077 61.4328H41.404C43.5517 61.4328 45.3243 61.4328 46.7682 61.3149C48.268 61.1923 49.6466 60.9294 50.9415 60.2696C52.9497 59.2464 54.5823 57.6137 55.6055 55.6056C56.2653 54.3106 56.5283 52.932 56.6508 51.4323C56.7688 49.9883 56.7688 48.2158 56.7688 46.0681V26.716C56.7688 26.6243 56.7688 26.5337 56.7688 26.4442C56.7696 24.75 56.7703 23.4698 56.4739 22.2353C56.3197 21.593 56.1064 20.9674 55.8373 20.3663C55.8207 20.3272 55.8031 20.2885 55.7846 20.2503C55.6103 19.8731 55.4138 19.5058 55.1961 19.1504C54.5327 18.0679 53.6271 17.1631 52.4285 15.9657C52.3652 15.9025 52.3011 15.8385 52.2362 15.7736L43.7297 7.26706C43.6648 7.20215 43.6008 7.13807 43.5376 7.0748C42.3401 5.87622 41.4354 4.97059 40.3529 4.30723C39.9961 4.08859 39.6273 3.89144 39.2484 3.71661C39.2134 3.69975 39.178 3.68364 39.1422 3.66829ZM40.7601 11.844V17.1425C40.7601 17.9337 40.7622 18.3666 40.7876 18.6776C40.7887 18.69 40.7897 18.7017 40.7907 18.7128C40.8018 18.7138 40.8135 18.7148 40.8259 18.7159C41.1369 18.7413 41.5698 18.7433 42.361 18.7433H47.6595L40.7601 11.844ZM32.7558 25.4134C34.2294 25.4134 35.4239 26.608 35.4239 28.0815V48.0923C35.4239 49.5658 34.2294 50.7604 32.7558 50.7604C31.2823 50.7604 30.0877 49.5658 30.0877 48.0923V28.0815C30.0877 26.608 31.2823 25.4134 32.7558 25.4134ZM43.4282 32.0837C44.9018 32.0837 46.0964 33.2782 46.0964 34.7518V48.0923C46.0964 49.5658 44.9018 50.7604 43.4282 50.7604C41.9547 50.7604 40.7601 49.5658 40.7601 48.0923V34.7518C40.7601 33.2782 41.9547 32.0837 43.4282 32.0837ZM22.0834 37.4199C23.557 37.4199 24.7515 38.6144 24.7515 40.088V48.0923C24.7515 49.5658 23.557 50.7604 22.0834 50.7604C20.6099 50.7604 19.4153 49.5658 19.4153 48.0923V40.088C19.4153 38.6144 20.6099 37.4199 22.0834 37.4199Z" fill="#F7C234"/>
</svg>
